<svg id="Laag_1" data-name="Laag 1" xmlns="http://www.w3.org/2000/svg" viewBox="0 0 521.12 332.34"><defs><style>.cls-1{fill:#183d76;}.cls-2{fill:#f8af00;}</style></defs><title>Logo_TraIT-Basic-RGB_2019</title><path class="cls-1" d="M96.09,358.59l-1.23-4h-.21a11.87,11.87,0,0,1-4.23,3.61,13.28,13.28,0,0,1-5.45,1,9.22,9.22,0,0,1-6.68-2.31,8.65,8.65,0,0,1-2.4-6.54,7.68,7.68,0,0,1,3.33-6.77q3.33-2.28,10.16-2.49l5-.16v-1.54a5.89,5.89,0,0,0-1.3-4.16,5.3,5.3,0,0,0-4-1.38,13.88,13.88,0,0,0-4.28.66A32.06,32.06,0,0,0,80.85,336l-2-4.4A21.32,21.32,0,0,1,84,329.69a23.69,23.69,0,0,1,5.3-.64q5.54,0,8.36,2.41T100.5,339v19.55Zm-9.18-4.2a7.64,7.64,0,0,0,5.39-1.87,6.79,6.79,0,0,0,2-5.26v-2.52l-3.72.16c-2.91.1-5,.59-6.34,1.45a4.43,4.43,0,0,0-2,4,3.87,3.87,0,0,0,1.15,3A5,5,0,0,0,86.91,354.39Z" transform="translate(-75.66 -39.17)"/><path class="cls-1" d="M154,358.59h-6.3V341.3H130v17.29h-6.27V320.23H130v15.69h17.69V320.23H154Z" transform="translate(-75.66 -39.17)"/><path class="cls-1" d="M176.09,359.12q-6.76,0-10.58-3.95t-3.82-10.88q0-7.11,3.54-11.18t9.74-4.06a12,12,0,0,1,9.08,3.49c2.22,2.32,3.33,5.53,3.33,9.6v3.33H168a9.59,9.59,0,0,0,2.28,6.5,8,8,0,0,0,6.06,2.27,22,22,0,0,0,4.79-.49,24.75,24.75,0,0,0,4.76-1.61v5a18.81,18.81,0,0,1-4.56,1.52A27.8,27.8,0,0,1,176.09,359.12ZM175,333.72a6.24,6.24,0,0,0-4.72,1.86,9,9,0,0,0-2.11,5.43h13.18a8.05,8.05,0,0,0-1.74-5.44A5.9,5.9,0,0,0,175,333.72Z" transform="translate(-75.66 -39.17)"/><path class="cls-1" d="M212.54,358.59l-1.23-4h-.21a11.87,11.87,0,0,1-4.23,3.61,13.31,13.31,0,0,1-5.45,1,9.22,9.22,0,0,1-6.68-2.31,8.65,8.65,0,0,1-2.4-6.54,7.68,7.68,0,0,1,3.33-6.77q3.33-2.28,10.15-2.49l5-.16v-1.54a5.89,5.89,0,0,0-1.29-4.16,5.3,5.3,0,0,0-4-1.38,13.83,13.83,0,0,0-4.28.66A31.44,31.44,0,0,0,197.3,336l-2-4.4a21.32,21.32,0,0,1,5.17-1.88,23.69,23.69,0,0,1,5.3-.64q5.53,0,8.36,2.41T217,339v19.55Zm-9.18-4.2a7.64,7.64,0,0,0,5.39-1.87,6.83,6.83,0,0,0,2-5.26v-2.52l-3.72.16c-2.91.1-5,.59-6.34,1.45a4.43,4.43,0,0,0-2,4,3.87,3.87,0,0,0,1.15,3A5,5,0,0,0,203.36,354.39Z" transform="translate(-75.66 -39.17)"/><path class="cls-1" d="M231.72,358.59h-6.17V317.76h6.17Z" transform="translate(-75.66 -39.17)"/><path class="cls-1" d="M251.35,354.13a14.79,14.79,0,0,0,4.51-.71v4.65a13.38,13.38,0,0,1-2.64.75,18.2,18.2,0,0,1-3.34.3q-8.76,0-8.77-9.24V334.24h-4v-2.73l4.25-2.25,2.1-6.14h3.81v6.45h8.26v4.67h-8.26v15.54a4.38,4.38,0,0,0,1.11,3.29A4.06,4.06,0,0,0,251.35,354.13Z" transform="translate(-75.66 -39.17)"/><path class="cls-1" d="M287.19,358.59H281V340.75a7.8,7.8,0,0,0-1.35-5,5.24,5.24,0,0,0-4.29-1.66c-2.59,0-4.5.78-5.71,2.33s-1.82,4.14-1.82,7.78v14.4h-6.17V317.76h6.17v10.37a48.19,48.19,0,0,1-.32,5.32h.39a8.61,8.61,0,0,1,3.51-3.25,11.26,11.26,0,0,1,5.23-1.15q10.55,0,10.55,10.62Z" transform="translate(-75.66 -39.17)"/><path class="cls-1" d="M293.25,346.81v-5.25h13.49v5.25Z" transform="translate(-75.66 -39.17)"/><path class="cls-1" d="M320,343.27v15.32h-6.27V320.23h10.83q7.43,0,11,2.78t3.56,8.4c0,4.77-2.48,8.18-7.45,10.2l10.84,17h-7.14l-9.18-15.32Zm0-5.2h4.35q4.38,0,6.35-1.62a5.93,5.93,0,0,0,2-4.83,5.18,5.18,0,0,0-2.13-4.67c-1.41-.95-3.55-1.42-6.4-1.42H320Z" transform="translate(-75.66 -39.17)"/><path class="cls-1" d="M348.06,358.59V320.23h6.27v38.36Z" transform="translate(-75.66 -39.17)"/><path class="cls-1" d="M392.48,359.12a10.15,10.15,0,0,1-8.55-4h-.37c.25,2.45.37,3.94.37,4.47V371.5h-6.16V329.57h5c.14.55.43,1.84.87,3.88h.31a9.67,9.67,0,0,1,8.66-4.4,10.07,10.07,0,0,1,8.46,3.93q3,3.94,3,11T401,355.13A10.17,10.17,0,0,1,392.48,359.12Zm-1.49-25q-3.67,0-5.36,2.16t-1.7,6.87V344q0,5.3,1.68,7.68t5.48,2.37a5.58,5.58,0,0,0,4.94-2.63c1.15-1.74,1.73-4.24,1.73-7.47s-.57-5.72-1.72-7.39A5.74,5.74,0,0,0,391,334.08Z" transform="translate(-75.66 -39.17)"/><path class="cls-1" d="M417.41,358.59h-6.16V317.76h6.16Z" transform="translate(-75.66 -39.17)"/><path class="cls-1" d="M444.38,358.59l-1.23-4h-.21a11.85,11.85,0,0,1-4.22,3.61,13.36,13.36,0,0,1-5.46,1,9.24,9.24,0,0,1-6.68-2.31,8.65,8.65,0,0,1-2.4-6.54,7.68,7.68,0,0,1,3.33-6.77q3.35-2.28,10.16-2.49l5-.16v-1.54a5.84,5.84,0,0,0-1.3-4.16,5.29,5.29,0,0,0-4-1.38,13.82,13.82,0,0,0-4.27.66,31.58,31.58,0,0,0-3.94,1.54l-2-4.4a21,21,0,0,1,5.17-1.88,23.62,23.62,0,0,1,5.3-.64q5.53,0,8.35,2.41t2.82,7.58v19.55Zm-9.18-4.2a7.62,7.62,0,0,0,5.39-1.87,6.8,6.8,0,0,0,2-5.26v-2.52l-3.73.16c-2.9.1-5,.59-6.33,1.45a4.42,4.42,0,0,0-2,4,3.88,3.88,0,0,0,1.16,3A4.94,4.94,0,0,0,435.2,354.39Z" transform="translate(-75.66 -39.17)"/><path class="cls-1" d="M468.21,354.13a14.74,14.74,0,0,0,4.51-.71v4.65a13.47,13.47,0,0,1-2.63.75,18.31,18.31,0,0,1-3.35.3q-8.76,0-8.76-9.24V334.24h-4v-2.73l4.25-2.25,2.1-6.14h3.8v6.45h8.27v4.67h-8.27v15.54a4.34,4.34,0,0,0,1.12,3.29A4,4,0,0,0,468.21,354.13Z" transform="translate(-75.66 -39.17)"/><path class="cls-1" d="M493.08,334.24H486v24.35h-6.19V334.24H475v-2.88l4.78-1.89v-1.89q0-5.15,2.41-7.62c1.61-1.66,4.07-2.48,7.37-2.48a19.64,19.64,0,0,1,6.41,1.07l-1.63,4.67a14.17,14.17,0,0,0-4.36-.73,3.52,3.52,0,0,0-3.05,1.3,6.5,6.5,0,0,0-1,3.89v1.89h7.08Z" transform="translate(-75.66 -39.17)"/><path class="cls-1" d="M523.76,344q0,7.11-3.65,11.1t-10.15,4a13.93,13.93,0,0,1-7.19-1.84A12.1,12.1,0,0,1,498,352a17.82,17.82,0,0,1-1.69-8q0-7.06,3.63-11t10.2-4a12.79,12.79,0,0,1,10,4.05Q523.75,337.15,523.76,344Zm-21.12,0q0,10.05,7.42,10.05T517.41,344q0-9.94-7.4-9.95-3.88,0-5.63,2.58T502.64,344Z" transform="translate(-75.66 -39.17)"/><path class="cls-1" d="M545.56,329.05a14.5,14.5,0,0,1,3.07.26l-.6,5.75a11.66,11.66,0,0,0-2.73-.32,7.89,7.89,0,0,0-6,2.41,8.7,8.7,0,0,0-2.3,6.28v15.16h-6.17v-29h4.83l.81,5.12h.32a11.52,11.52,0,0,1,3.76-4.12A9,9,0,0,1,545.56,329.05Z" transform="translate(-75.66 -39.17)"/><path class="cls-1" d="M578.47,358.59h-6.2V340.7a8.23,8.23,0,0,0-1.25-5,4.68,4.68,0,0,0-3.94-1.64,6,6,0,0,0-5.24,2.33q-1.67,2.31-1.66,7.73v14.45H554v-29h4.83l.87,3.81H560a8,8,0,0,1,3.5-3.2,11.21,11.21,0,0,1,5.05-1.13q6.69,0,8.87,4.56h.42a9,9,0,0,1,3.62-3.36,11.56,11.56,0,0,1,5.36-1.2q5.19,0,7.57,2.62t2.37,8v18.92h-6.17V340.7a8.08,8.08,0,0,0-1.27-5,4.69,4.69,0,0,0-4-1.64c-2.39,0-4.15.75-5.26,2.25s-1.66,3.79-1.66,6.89Z" transform="translate(-75.66 -39.17)"/><path class="cls-1" d="M125.68,264.19a56.92,56.92,0,0,0,16.44-3v19.43q-9.76,4.38-24,4.37-15.67,0-22.82-7.92t-7.15-23.76V207.16H75.66v-11l14.39-8.74,7.54-20.21h16.7v20.39h26.8v19.61h-26.8v46.16q0,5.56,3.12,8.22A12.35,12.35,0,0,0,125.68,264.19Z" transform="translate(-75.66 -39.17)"/><path class="cls-1" d="M214.91,185.75a41.7,41.7,0,0,1,8.82.77l-2,24.49a30,30,0,0,0-7.7-.85q-12.51,0-19.49,6.42t-7,18v48.73H161.47V187.55h19.79l3.85,16.1h1.28a35.93,35.93,0,0,1,12-13A29.66,29.66,0,0,1,214.91,185.75Z" transform="translate(-75.66 -39.17)"/><path class="cls-1" d="M301.92,283.29l-5.05-13h-.69q-6.58,8.31-13.57,11.52T264.41,285q-13.79,0-21.71-7.88t-7.92-22.43q0-15.25,10.66-22.48t32.16-8l16.61-.51v-4.2q0-14.56-14.9-14.56-11.47,0-27,6.94l-8.65-17.64a77.74,77.74,0,0,1,36.65-8.65q19.28,0,29.54,8.39t10.28,25.52v63.8Zm-7.71-44.36-10.1.34q-11.4.34-17,4.11t-5.57,11.48q0,11,12.68,11,9.08,0,14.51-5.22t5.44-13.87Z" transform="translate(-75.66 -39.17)"/><path class="cls-2" d="M440.91,264.19a56.8,56.8,0,0,0,16.44-3v19.43q-9.75,4.38-24,4.37-15.67,0-22.83-7.92t-7.15-23.76V207.16H390.9v-11l14.39-8.74,7.53-20.21h16.7v20.39h26.81v19.61H429.52v46.16q0,5.56,3.13,8.22A12.32,12.32,0,0,0,440.91,264.19Z" transform="translate(-75.66 -39.17)"/><path class="cls-2" d="M373.17,283.29H347.05V187.55h26.12Z" transform="translate(-75.66 -39.17)"/><circle class="cls-2" cx="284.53" cy="15.36" r="15.36"/><circle class="cls-2" cx="284.53" cy="89.5" r="15.36"/><circle class="cls-2" cx="356.01" cy="15.36" r="15.36"/><circle class="cls-2" cx="427.5" cy="15.36" r="15.36"/></svg>