<?xml version="1.0" encoding="utf-8"?>
<!-- Generator: Adobe Illustrator 20.1.0, SVG Export Plug-In . SVG Version: 6.00 Build 0)  -->
<!DOCTYPE svg PUBLIC "-//W3C//DTD SVG 1.1//EN" "http://www.w3.org/Graphics/SVG/1.1/DTD/svg11.dtd">
<svg version="1.1" id="Layer_1" xmlns="http://www.w3.org/2000/svg" xmlns:xlink="http://www.w3.org/1999/xlink" x="0px" y="0px"
	 width="200px" height="73px" viewBox="0 0 200 73" style="enable-background:new 0 0 200 73;" xml:space="preserve">
<style type="text/css">
	.st0{fill:#183D76;}
	.st1{fill:#F8AF00;}
</style>
<g>
	<g>
		<g>
			<path class="st0" d="M69.8,0.5h4.5v11.7C76,11,79,8.9,82.5,8.9c7.1,0,7.5,4.7,7.5,9.2v15.3h-4.4V18.7c0-3.9-0.6-5.8-4.4-5.8
				c-2.6,0-5.7,1.9-6.8,2.5v18h-4.5V0.5z"/>
			<path class="st0" d="M94.8,21.8c0-9.6,4.8-12.9,11.1-12.9c6.4,0,9.1,4.3,9.1,12v1.6H99.4c0.1,6.5,3.6,7.5,8.2,7.5
				c1.7,0,4.7-0.6,6.1-1l0.7,3.6c-1.3,0.4-4.3,1.1-7.9,1.1C99.4,33.9,94.8,31.1,94.8,21.8z M110.3,19.3c0-4.2-1.5-7.1-4.9-7.1
				c-3.3,0-5.6,2.4-5.9,7.1H110.3z"/>
			<path class="st0" d="M117.8,26.8c0-5.9,5.3-7.1,9.5-7.2l5.2-0.1v-2.7c0-3.3-1.7-4-5.6-4c-2.3,0-4.9,0.7-6.3,1.1l-0.9-3.4
				c1.5-0.7,4.6-1.6,8.2-1.6c5.9,0,9,1.8,9,6.7v12.5c0,1.5,1,1.8,2.2,1.9l-0.2,3.5c-0.3,0-0.6,0-1,0c-2.2,0-4.7-0.8-5.1-2.9
				c-1.3,0.9-3.7,3-7.8,3C120.4,33.7,117.8,31.3,117.8,26.8z M132.4,28v-5.5l-5.1,0.2c-3.3,0.1-5.1,1.6-5.1,3.7
				c0,2.7,1.6,3.6,3.8,3.6C128.6,30.1,131.5,28.4,132.4,28z"/>
			<path class="st0" d="M143.7,0.5h4.5v32.9h-4.5V0.5z"/>
			<path class="st0" d="M155.4,26.5V13.2h-3.5V9.5h3.5V4.7h4.5v4.9h7.4v3.6h-7.4v13.3c0,3,0.9,3.4,4,3.4c1.4,0,3.7-0.5,4.1-0.6
				l0.6,3.7c-1,0.3-3.1,0.8-4.7,0.8C159.5,33.8,155.4,33.8,155.4,26.5z"/>
			<path class="st0" d="M172.2,0.5h4.5v11.7c1.6-1.2,4.6-3.2,8.2-3.2c7.1,0,7.5,4.7,7.5,9.2v15.3H188V18.7c0-3.9-0.6-5.8-4.4-5.8
				c-2.6,0-5.7,1.9-6.8,2.5v18h-4.5V0.5z"/>
		</g>
		<g>
			<path class="st1" d="M86.5,66.7l-5.3-7.4c-0.7,0.1-1.8,0.2-2.7,0.2h-3.8v12.4h-5V39.3h11.2c6.5,0,11.1,3.1,11.1,9.8
				c0,3.8-1.8,7.1-5.9,8.9l4.6,6.2c2.1,2.7,4.4,3.7,6.7,4.3l-1.1,3.8C93.2,72.2,89.5,70.6,86.5,66.7z M78.8,55.6
				c4.9,0,8.1-1.7,8.1-6.2c0-4.5-2.3-6.1-7-6.1h-5.2v12.3H78.8z"/>
			<path class="st1" d="M101.4,41h4.7v30.8h-4.7V41z"/>
		</g>
		<g>
			<path class="st0" d="M119.2,52.1c0.3,0,0.5,0,0.7,0.1l-0.1,1.4c-0.2,0-0.4-0.1-0.6-0.1c-0.6,0-1.1,0.2-1.4,0.6
				c-0.4,0.4-0.5,0.9-0.5,1.5v3.6h-1.5v-6.9h1.1l0.2,1.2h0.1c0.2-0.4,0.5-0.7,0.9-1C118.3,52.2,118.7,52.1,119.2,52.1z"/>
			<path class="st0" d="M124,59.2c-1.1,0-1.9-0.3-2.5-0.9c-0.6-0.6-0.9-1.5-0.9-2.6c0-1.1,0.3-2,0.8-2.6c0.6-0.6,1.3-1,2.3-1
				c0.9,0,1.6,0.3,2.2,0.8c0.5,0.6,0.8,1.3,0.8,2.3V56h-4.6c0,0.7,0.2,1.2,0.5,1.5c0.3,0.4,0.8,0.5,1.4,0.5c0.4,0,0.8,0,1.1-0.1
				c0.4-0.1,0.7-0.2,1.1-0.4v1.2c-0.4,0.2-0.7,0.3-1.1,0.4C124.9,59.2,124.4,59.2,124,59.2z M123.7,53.2c-0.5,0-0.8,0.1-1.1,0.4
				c-0.3,0.3-0.4,0.7-0.5,1.3h3.1c0-0.6-0.1-1-0.4-1.3C124.5,53.4,124.2,53.2,123.7,53.2z"/>
			<path class="st0" d="M132.8,57.2c0,0.7-0.2,1.2-0.7,1.5c-0.5,0.4-1.2,0.5-2.1,0.5c-0.9,0-1.7-0.1-2.2-0.4v-1.3
				c0.8,0.4,1.6,0.6,2.3,0.6c0.9,0,1.3-0.3,1.3-0.8c0-0.2,0-0.3-0.1-0.4c-0.1-0.1-0.3-0.2-0.5-0.4c-0.2-0.1-0.5-0.3-1-0.4
				c-0.8-0.3-1.3-0.6-1.6-0.9s-0.4-0.7-0.4-1.2c0-0.6,0.2-1,0.7-1.4c0.5-0.3,1.1-0.5,1.9-0.5c0.8,0,1.6,0.2,2.3,0.5l-0.5,1.1
				c-0.7-0.3-1.4-0.5-1.9-0.5c-0.8,0-1.2,0.2-1.2,0.7c0,0.2,0.1,0.4,0.3,0.5c0.2,0.1,0.6,0.4,1.3,0.6c0.6,0.2,1,0.4,1.2,0.6
				c0.3,0.2,0.4,0.4,0.6,0.6S132.8,56.8,132.8,57.2z"/>
			<path class="st0" d="M137.3,59.2c-1.1,0-1.9-0.3-2.5-0.9c-0.6-0.6-0.9-1.5-0.9-2.6c0-1.1,0.3-2,0.8-2.6c0.6-0.6,1.3-1,2.3-1
				c0.9,0,1.6,0.3,2.2,0.8c0.5,0.6,0.8,1.3,0.8,2.3V56h-4.6c0,0.7,0.2,1.2,0.5,1.5c0.3,0.4,0.8,0.5,1.4,0.5c0.4,0,0.8,0,1.1-0.1
				c0.4-0.1,0.7-0.2,1.1-0.4v1.2c-0.4,0.2-0.7,0.3-1.1,0.4C138.2,59.2,137.8,59.2,137.3,59.2z M137,53.2c-0.5,0-0.8,0.1-1.1,0.4
				s-0.4,0.7-0.5,1.3h3.1c0-0.6-0.1-1-0.4-1.3C137.9,53.4,137.5,53.2,137,53.2z"/>
			<path class="st0" d="M145.7,59.1l-0.3-1h0c-0.3,0.4-0.7,0.7-1,0.9c-0.3,0.2-0.8,0.2-1.3,0.2c-0.7,0-1.2-0.2-1.6-0.5
				c-0.4-0.4-0.6-0.9-0.6-1.5c0-0.7,0.3-1.2,0.8-1.6c0.5-0.4,1.3-0.6,2.4-0.6l1.2,0v-0.4c0-0.4-0.1-0.8-0.3-1
				c-0.2-0.2-0.5-0.3-1-0.3c-0.4,0-0.7,0.1-1,0.2c-0.3,0.1-0.6,0.2-0.9,0.4l-0.5-1c0.4-0.2,0.8-0.3,1.2-0.4c0.4-0.1,0.9-0.2,1.3-0.2
				c0.9,0,1.5,0.2,2,0.6c0.4,0.4,0.7,1,0.7,1.8v4.6H145.7z M143.6,58.1c0.5,0,1-0.1,1.3-0.4c0.3-0.3,0.5-0.7,0.5-1.2v-0.6l-0.9,0
				c-0.7,0-1.2,0.1-1.5,0.3c-0.3,0.2-0.5,0.5-0.5,0.9c0,0.3,0.1,0.5,0.3,0.7C142.9,58,143.2,58.1,143.6,58.1z"/>
			<path class="st0" d="M152.1,52.1c0.3,0,0.5,0,0.7,0.1l-0.1,1.4c-0.2,0-0.4-0.1-0.6-0.1c-0.6,0-1.1,0.2-1.4,0.6
				c-0.4,0.4-0.5,0.9-0.5,1.5v3.6h-1.5v-6.9h1.1l0.2,1.2h0.1c0.2-0.4,0.5-0.7,0.9-1C151.3,52.2,151.7,52.1,152.1,52.1z"/>
			<path class="st0" d="M156.7,59.2c-1,0-1.8-0.3-2.4-0.9c-0.5-0.6-0.8-1.5-0.8-2.6c0-1.2,0.3-2,0.8-2.7c0.6-0.6,1.4-0.9,2.5-0.9
				c0.7,0,1.4,0.1,2,0.4l-0.4,1.2c-0.6-0.2-1.1-0.4-1.5-0.4c-1.2,0-1.8,0.8-1.8,2.4c0,0.8,0.1,1.4,0.4,1.7c0.3,0.4,0.7,0.6,1.3,0.6
				c0.7,0,1.3-0.2,1.8-0.5v1.3c-0.3,0.2-0.5,0.3-0.8,0.3C157.5,59.2,157.1,59.2,156.7,59.2z"/>
			<path class="st0" d="M166.1,59.1h-1.5v-4.2c0-0.5-0.1-0.9-0.3-1.2c-0.2-0.3-0.6-0.4-1-0.4c-0.6,0-1.1,0.2-1.4,0.5
				c-0.3,0.4-0.4,1-0.4,1.8v3.4H160v-9.7h1.5v2.5c0,0.4,0,0.8-0.1,1.3h0.1c0.2-0.3,0.5-0.6,0.8-0.8c0.4-0.2,0.8-0.3,1.2-0.3
				c1.7,0,2.5,0.8,2.5,2.5V59.1z"/>
			<path class="st0" d="M115.6,63.2c0-0.3,0.1-0.5,0.2-0.6c0.1-0.1,0.3-0.2,0.6-0.2c0.3,0,0.5,0.1,0.6,0.2c0.1,0.1,0.2,0.3,0.2,0.6
				c0,0.2-0.1,0.4-0.2,0.6c-0.1,0.1-0.3,0.2-0.6,0.2c-0.3,0-0.5-0.1-0.6-0.2C115.7,63.6,115.6,63.4,115.6,63.2z M117.1,71.8h-1.5V65
				h1.5V71.8z"/>
			<path class="st0" d="M125.1,71.8h-1.5v-4.2c0-0.5-0.1-0.9-0.3-1.2c-0.2-0.3-0.6-0.4-1-0.4c-0.6,0-1.1,0.2-1.4,0.5
				c-0.3,0.4-0.4,1-0.4,1.8v3.4H119V65h1.1l0.2,0.9h0.1c0.2-0.3,0.5-0.6,0.9-0.8s0.8-0.3,1.3-0.3c1.6,0,2.5,0.8,2.5,2.5V71.8z"/>
			<path class="st0" d="M130.4,66.1h-1.7v5.8h-1.5v-5.8h-1.1v-0.7l1.1-0.4v-0.4c0-0.8,0.2-1.4,0.6-1.8c0.4-0.4,1-0.6,1.7-0.6
				c0.5,0,1,0.1,1.5,0.3l-0.4,1.1c-0.4-0.1-0.7-0.2-1-0.2c-0.3,0-0.6,0.1-0.7,0.3c-0.2,0.2-0.2,0.5-0.2,0.9V65h1.7V66.1z"/>
			<path class="st0" d="M134.9,64.8c0.3,0,0.5,0,0.7,0.1l-0.1,1.4c-0.2,0-0.4-0.1-0.6-0.1c-0.6,0-1.1,0.2-1.4,0.6
				c-0.4,0.4-0.5,0.9-0.5,1.5v3.6h-1.5V65h1.1l0.2,1.2h0.1c0.2-0.4,0.5-0.7,0.9-1C134.1,65,134.5,64.8,134.9,64.8z"/>
			<path class="st0" d="M141,71.8l-0.3-1h0c-0.3,0.4-0.7,0.7-1,0.9c-0.3,0.2-0.8,0.2-1.3,0.2c-0.7,0-1.2-0.2-1.6-0.5
				c-0.4-0.4-0.6-0.9-0.6-1.5c0-0.7,0.3-1.2,0.8-1.6c0.5-0.4,1.3-0.6,2.4-0.6l1.2,0v-0.4c0-0.4-0.1-0.8-0.3-1
				c-0.2-0.2-0.5-0.3-1-0.3c-0.4,0-0.7,0.1-1,0.2c-0.3,0.1-0.6,0.2-0.9,0.4l-0.5-1c0.4-0.2,0.8-0.3,1.2-0.4c0.4-0.1,0.9-0.2,1.3-0.2
				c0.9,0,1.5,0.2,2,0.6c0.4,0.4,0.7,1,0.7,1.8v4.6H141z M138.8,70.9c0.5,0,1-0.1,1.3-0.4c0.3-0.3,0.5-0.7,0.5-1.2v-0.6l-0.9,0
				c-0.7,0-1.2,0.1-1.5,0.3c-0.3,0.2-0.5,0.5-0.5,0.9c0,0.3,0.1,0.5,0.3,0.7C138.1,70.8,138.4,70.9,138.8,70.9z"/>
			<path class="st0" d="M148.6,69.9c0,0.7-0.2,1.2-0.7,1.5c-0.5,0.4-1.2,0.5-2.1,0.5c-0.9,0-1.7-0.1-2.2-0.4v-1.3
				c0.8,0.4,1.6,0.6,2.3,0.6c0.9,0,1.3-0.3,1.3-0.8c0-0.2,0-0.3-0.1-0.4c-0.1-0.1-0.3-0.2-0.5-0.4c-0.2-0.1-0.5-0.3-1-0.4
				c-0.8-0.3-1.3-0.6-1.6-0.9c-0.3-0.3-0.4-0.7-0.4-1.2c0-0.6,0.2-1,0.7-1.4c0.5-0.3,1.1-0.5,1.9-0.5c0.8,0,1.6,0.2,2.3,0.5
				l-0.5,1.1c-0.7-0.3-1.4-0.5-1.9-0.5c-0.8,0-1.2,0.2-1.2,0.7c0,0.2,0.1,0.4,0.3,0.5c0.2,0.1,0.6,0.4,1.3,0.6
				c0.6,0.2,1,0.4,1.2,0.6c0.3,0.2,0.4,0.4,0.6,0.6C148.5,69.3,148.6,69.6,148.6,69.9z"/>
			<path class="st0" d="M152.8,70.8c0.4,0,0.7-0.1,1.1-0.2v1.1c-0.2,0.1-0.4,0.1-0.6,0.2c-0.3,0-0.5,0.1-0.8,0.1
				c-1.4,0-2.1-0.7-2.1-2.2v-3.7h-0.9v-0.6l1-0.5l0.5-1.5h0.9V65h2v1.1h-2v3.7c0,0.4,0.1,0.6,0.3,0.8
				C152.2,70.7,152.5,70.8,152.8,70.8z"/>
			<path class="st0" d="M158.5,64.8c0.3,0,0.5,0,0.7,0.1l-0.1,1.4c-0.2,0-0.4-0.1-0.6-0.1c-0.6,0-1.1,0.2-1.4,0.6
				c-0.4,0.4-0.5,0.9-0.5,1.5v3.6H155V65h1.1l0.2,1.2h0.1c0.2-0.4,0.5-0.7,0.9-1S158.1,64.8,158.5,64.8z"/>
			<path class="st0" d="M165.3,71.8l-0.2-0.9H165c-0.2,0.3-0.5,0.6-0.9,0.8c-0.4,0.2-0.8,0.3-1.3,0.3c-0.8,0-1.5-0.2-1.9-0.6
				c-0.4-0.4-0.6-1-0.6-1.9V65h1.5v4.2c0,0.5,0.1,0.9,0.3,1.2c0.2,0.3,0.6,0.4,1,0.4c0.6,0,1.1-0.2,1.4-0.5c0.3-0.4,0.4-1,0.4-1.8
				V65h1.5v6.9H165.3z"/>
			<path class="st0" d="M171.1,72c-1,0-1.8-0.3-2.4-0.9c-0.5-0.6-0.8-1.5-0.8-2.6c0-1.2,0.3-2,0.8-2.7c0.6-0.6,1.4-0.9,2.5-0.9
				c0.7,0,1.4,0.1,2,0.4l-0.4,1.2c-0.6-0.2-1.1-0.4-1.5-0.4c-1.2,0-1.8,0.8-1.8,2.4c0,0.8,0.1,1.4,0.4,1.7c0.3,0.4,0.7,0.6,1.3,0.6
				c0.7,0,1.3-0.2,1.8-0.5v1.3c-0.3,0.2-0.5,0.3-0.8,0.3C171.9,71.9,171.5,72,171.1,72z"/>
			<path class="st0" d="M177.4,70.8c0.4,0,0.7-0.1,1.1-0.2v1.1c-0.2,0.1-0.4,0.1-0.6,0.2c-0.3,0-0.5,0.1-0.8,0.1
				c-1.4,0-2.1-0.7-2.1-2.2v-3.7H174v-0.6l1-0.5l0.5-1.5h0.9V65h2v1.1h-2v3.7c0,0.4,0.1,0.6,0.3,0.8
				C176.9,70.7,177.1,70.8,177.4,70.8z"/>
			<path class="st0" d="M184.5,71.8l-0.2-0.9h-0.1c-0.2,0.3-0.5,0.6-0.9,0.8s-0.8,0.3-1.3,0.3c-0.8,0-1.5-0.2-1.9-0.6
				c-0.4-0.4-0.6-1-0.6-1.9V65h1.5v4.2c0,0.5,0.1,0.9,0.3,1.2c0.2,0.3,0.6,0.4,1,0.4c0.6,0,1.1-0.2,1.4-0.5c0.3-0.4,0.4-1,0.4-1.8
				V65h1.5v6.9H184.5z"/>
			<path class="st0" d="M191,64.8c0.3,0,0.5,0,0.7,0.1l-0.1,1.4c-0.2,0-0.4-0.1-0.6-0.1c-0.6,0-1.1,0.2-1.4,0.6
				c-0.4,0.4-0.5,0.9-0.5,1.5v3.6h-1.5V65h1.1l0.2,1.2h0.1c0.2-0.4,0.5-0.7,0.9-1S190.6,64.8,191,64.8z"/>
			<path class="st0" d="M195.8,72c-1.1,0-1.9-0.3-2.5-0.9c-0.6-0.6-0.9-1.5-0.9-2.6c0-1.1,0.3-2,0.8-2.6c0.6-0.6,1.3-1,2.3-1
				c0.9,0,1.6,0.3,2.2,0.8c0.5,0.6,0.8,1.3,0.8,2.3v0.8h-4.6c0,0.7,0.2,1.2,0.5,1.5c0.3,0.4,0.8,0.5,1.4,0.5c0.4,0,0.8,0,1.1-0.1
				c0.4-0.1,0.7-0.2,1.1-0.4v1.2c-0.4,0.2-0.7,0.3-1.1,0.4C196.7,71.9,196.3,72,195.8,72z M195.5,66c-0.5,0-0.8,0.1-1.1,0.4
				s-0.4,0.7-0.5,1.3h3.1c0-0.6-0.1-1-0.4-1.3C196.4,66.1,196,66,195.5,66z"/>
		</g>
	</g>
	<g>
		<circle class="st1" cx="3.2" cy="3.2" r="2.7"/>
		<circle class="st1" cx="15.9" cy="3.2" r="2.7"/>
		<circle class="st1" cx="28.6" cy="3.2" r="2.7"/>
		<circle class="st1" cx="41.4" cy="3.2" r="2.7"/>
		<circle class="st1" cx="54.1" cy="3.2" r="2.7"/>
		<circle class="st1" cx="3.2" cy="16.4" r="2.7"/>
		<circle class="st1" cx="15.9" cy="16.4" r="2.7"/>
		<circle class="st1" cx="28.6" cy="16.4" r="2.7"/>
		<circle class="st1" cx="41.4" cy="16.4" r="2.7"/>
		<circle class="st1" cx="54.1" cy="16.4" r="2.7"/>
		<circle class="st1" cx="3.2" cy="29.6" r="2.7"/>
		<circle class="st1" cx="15.9" cy="29.6" r="2.7"/>
		<circle class="st1" cx="41.4" cy="29.6" r="2.7"/>
		<circle class="st1" cx="54.1" cy="29.6" r="2.7"/>
		<circle class="st1" cx="3.2" cy="42.8" r="2.7"/>
		<circle class="st1" cx="15.9" cy="42.8" r="2.7"/>
		<circle class="st1" cx="41.4" cy="42.8" r="2.7"/>
		<circle class="st1" cx="54.1" cy="42.8" r="2.7"/>
		<circle class="st1" cx="3.2" cy="56" r="2.7"/>
		<circle class="st1" cx="15.9" cy="56" r="2.7"/>
		<circle class="st1" cx="28.6" cy="56" r="2.7"/>
		<circle class="st1" cx="41.4" cy="56" r="2.7"/>
		<circle class="st1" cx="54.1" cy="56" r="2.7"/>
		<circle class="st1" cx="3.2" cy="69.2" r="2.7"/>
		<circle class="st1" cx="15.9" cy="69.2" r="2.7"/>
		<circle class="st1" cx="28.6" cy="69.2" r="2.7"/>
		<circle class="st1" cx="41.4" cy="69.2" r="2.7"/>
		<circle class="st1" cx="54.1" cy="69.2" r="2.7"/>
	</g>
</g>
</svg>
